<svg width="15" height="15" viewBox="0 0 15 15" fill="none" xmlns="http://www.w3.org/2000/svg">
<path d="M13.6055 2.19252C14.1673 2.98902 14.1673 4.09781 14.1673 6.31538C14.1673 8.53295 14.1673 9.64174 13.6055 10.4382C13.3624 10.783 13.0499 11.0791 12.6859 11.3095C11.9514 11.7744 10.9654 11.8332 9.16732 11.8406V11.8417L8.24601 13.5873C7.9389 14.1692 7.0624 14.1692 6.75529 13.5873L5.83398 11.8417V11.8406C4.0359 11.8332 3.04988 11.7744 2.31542 11.3095C1.95145 11.0791 1.63895 10.783 1.39575 10.4382C0.833984 9.64174 0.833984 8.53295 0.833984 6.31538C0.833984 4.09781 0.833984 2.98902 1.39575 2.19252C1.63895 1.84771 1.95145 1.55166 2.31542 1.32126C3.15616 0.789062 4.32655 0.789062 6.66732 0.789062H8.33398C10.6748 0.789062 11.8451 0.789062 12.6859 1.32126C13.0499 1.55166 13.3624 1.84771 13.6055 2.19252Z" stroke="#535355" stroke-linecap="round" stroke-linejoin="round"/>
<path d="M5 4.73438L10 4.73437" stroke="#535355" stroke-linecap="round" stroke-linejoin="round"/>
<path d="M5 7.89844H7.5" stroke="#535355" stroke-linecap="round" stroke-linejoin="round"/>
</svg>

