<svg width="36" height="37" viewBox="0 0 36 37" fill="none" xmlns="http://www.w3.org/2000/svg">
<path d="M13.188 16.7023L18.289 20.5618C18.7087 20.8794 19.3029 20.8172 19.6478 20.4195L29.267 9.32913" stroke="#717171" stroke-width="4" stroke-linecap="round"/>
<path d="M30.7287 19.6515C30.7287 22.4246 29.8677 25.1279 28.2666 27.382C26.6655 29.636 24.4048 31.3275 21.8019 32.2189C19.199 33.1102 16.3847 33.1567 13.7543 32.3517C11.1239 31.5467 8.80955 29.9308 7.13621 27.7308C5.46287 25.5308 4.51464 22.8573 4.42471 20.0858C4.33477 17.3142 5.10764 14.5839 6.63477 12.2782C8.1619 9.97251 10.3666 8.20731 12.9392 7.23052C15.5117 6.25372 18.323 6.11439 20.9781 6.8321" stroke="#717171" stroke-width="4" stroke-linecap="round"/>
</svg>
