<svg width="25" height="25" viewBox="0 0 25 25" fill="none" xmlns="http://www.w3.org/2000/svg">
<path d="M9.9277 6.73629C9.78122 6.58999 9.58265 6.50781 9.37561 6.50781C9.16858 6.50781 8.97002 6.58999 8.82353 6.73629L3.6152 11.9446C3.4689 12.0911 3.38672 12.2897 3.38672 12.4967C3.38672 12.7038 3.4689 12.9023 3.6152 13.0488L8.82353 18.2571C8.97002 18.4035 9.16858 18.4857 9.37561 18.4857C9.58265 18.4857 9.78122 18.4035 9.9277 18.2571C10.074 18.1107 10.1562 17.9121 10.1562 17.705C10.1562 17.4981 10.074 17.2994 9.9277 17.1529L5.27145 12.4967L9.9277 7.84046C10.074 7.69398 10.1562 7.49541 10.1562 7.28838C10.1562 7.08134 10.074 6.88278 9.9277 6.73629Z" fill="black"/>
<path d="M21.3847 11.9492L16.1764 6.74093C16.0282 6.60293 15.8324 6.52781 15.63 6.53137C15.4276 6.53494 15.2345 6.61693 15.0914 6.76008C14.9482 6.90322 14.8662 7.09633 14.8626 7.29873C14.8591 7.50112 14.9342 7.697 15.0722 7.8451L19.7284 12.5013L15.0722 17.1576C14.9259 17.3041 14.8438 17.5027 14.8438 17.7097C14.8438 17.9167 14.9259 18.1153 15.0722 18.2617C15.2186 18.4081 15.4173 18.4903 15.6243 18.4903C15.8314 18.4903 16.0299 18.4081 16.1764 18.2617L21.3847 13.0534C21.531 12.9069 21.6132 12.7084 21.6132 12.5013C21.6132 12.2943 21.531 12.0958 21.3847 11.9492Z" fill="black"/>
</svg>
