<svg width="94" height="26" viewBox="0 0 94 26" fill="none" xmlns="http://www.w3.org/2000/svg">
<path d="M0.247375 3.2C0.247375 2.58133 0.343375 2.16533 0.535375 1.952C0.727375 1.71733 1.18604 1.57867 1.91138 1.536C3.19138 1.45067 4.47138 1.44 5.75138 1.504C7.03138 1.568 8.25804 1.73867 9.43138 2.016C10.6047 2.29333 11.6927 2.69867 12.6954 3.232C13.698 3.76533 14.5727 4.45867 15.3194 5.312C16.066 6.16533 16.6527 7.2 17.0794 8.416C17.506 9.632 17.7194 11.0613 17.7194 12.704C17.7194 16.736 16.4074 19.7867 13.7834 21.856C11.1594 23.904 7.19138 24.928 1.87938 24.928C0.962042 24.928 0.503375 24.416 0.503375 23.392L0.247375 3.2ZM5.78338 19.648C7.95938 19.3493 9.59138 18.6347 10.6794 17.504C11.7674 16.352 12.3114 14.7413 12.3114 12.672C12.3114 11.712 12.162 10.8373 11.8634 10.048C11.5647 9.25867 11.1274 8.58667 10.5514 8.032C9.97538 7.49867 9.26071 7.09333 8.40738 6.816C7.57538 6.51733 6.61538 6.38933 5.52738 6.432L5.78338 19.648Z" fill="#B56FCF"/>
<path d="M35.7479 13.216C35.7479 12.064 35.6199 11.0507 35.3639 10.176C35.1079 9.30133 34.7665 8.56533 34.3399 7.968C33.8919 7.392 33.3692 6.96533 32.7719 6.688C32.1745 6.38933 31.5345 6.24 30.8519 6.24C30.1692 6.24 29.5292 6.38933 28.9319 6.688C28.3345 6.96533 27.8225 7.392 27.3959 7.968C26.9479 8.56533 26.5959 9.30133 26.3399 10.176C26.0839 11.0507 25.9559 12.064 25.9559 13.216C25.9559 14.368 26.0839 15.3813 26.3399 16.256C26.5959 17.1307 26.9479 17.856 27.3959 18.432C27.8225 19.008 28.3345 19.4453 28.9319 19.744C29.5292 20.0213 30.1692 20.16 30.8519 20.16C31.5345 20.16 32.1745 20.0213 32.7719 19.744C33.3692 19.4453 33.8919 19.008 34.3399 18.432C34.7665 17.856 35.1079 17.1307 35.3639 16.256C35.6199 15.3813 35.7479 14.368 35.7479 13.216ZM41.3479 13.216C41.3479 15.072 41.0599 16.7467 40.4839 18.24C39.9292 19.7333 39.1719 21.0027 38.2119 22.048C37.2519 23.0933 36.1319 23.8933 34.8519 24.448C33.5932 25.0027 32.2599 25.28 30.8519 25.28C29.4439 25.28 28.0999 25.0027 26.8199 24.448C25.5612 23.8933 24.4519 23.0933 23.4919 22.048C22.5319 21.0027 21.7639 19.7333 21.1879 18.24C20.6332 16.7467 20.3559 15.0613 20.3559 13.184C20.3559 11.328 20.6332 9.65333 21.1879 8.16C21.7639 6.66667 22.5319 5.39733 23.4919 4.352C24.4519 3.30667 25.5612 2.50667 26.8199 1.952C28.0999 1.39733 29.4439 1.12 30.8519 1.12C32.2599 1.12 33.5932 1.408 34.8519 1.984C36.1319 2.53867 37.2519 3.33867 38.2119 4.384C39.1719 5.42933 39.9292 6.69867 40.4839 8.192C41.0599 9.68533 41.3479 11.36 41.3479 13.216Z" fill="#FA7373"/>
<path d="M44.4274 3.136C44.406 2.64533 44.47 2.31467 44.6194 2.144C44.79 1.952 45.11 1.80267 45.5794 1.696C46.0487 1.61067 46.486 1.536 46.8914 1.472C47.2967 1.38667 47.6914 1.32267 48.0754 1.28C48.438 1.23733 48.8007 1.20533 49.1634 1.184C49.526 1.16267 49.91 1.14133 50.3154 1.12C51.4674 1.09867 52.598 1.17333 53.7074 1.344C54.838 1.49333 55.8514 1.80267 56.7474 2.272C57.6434 2.74133 58.3794 3.38133 58.9554 4.192C59.5314 4.98133 59.862 5.99467 59.9474 7.232C60.0114 8.064 59.9154 8.88533 59.6594 9.696C59.4034 10.4853 58.902 11.1573 58.1554 11.712C59.1794 12.2027 59.9794 12.992 60.5554 14.08C61.1314 15.168 61.4407 16.3307 61.4834 17.568C61.5047 18.6773 61.3234 19.6373 60.9394 20.448C60.5554 21.2587 60.0114 21.9307 59.3074 22.464C58.6034 23.0187 57.7714 23.4667 56.8114 23.808C55.8514 24.128 54.8167 24.3733 53.7074 24.544C52.598 24.7147 51.446 24.8213 50.2514 24.864C49.0567 24.928 47.8727 24.9493 46.6994 24.928C46.4647 24.928 46.2407 24.9173 46.0274 24.896C45.8354 24.8747 45.6754 24.8107 45.5474 24.704C45.398 24.5973 45.27 24.4373 45.1634 24.224C45.078 24.032 45.0354 23.744 45.0354 23.36L44.4274 3.136ZM50.1874 20.288C51.0407 20.288 51.83 20.2453 52.5554 20.16C53.302 20.0747 53.9527 19.9253 54.5074 19.712C55.0407 19.4987 55.446 19.2213 55.7234 18.88C56.022 18.5173 56.1607 18.08 56.1394 17.568C56.0967 16.9067 55.8407 16.416 55.3714 16.096C54.902 15.7547 54.3474 15.52 53.7074 15.392C53.0674 15.264 52.406 15.2213 51.7234 15.264C51.062 15.2853 50.4967 15.3173 50.0274 15.36L50.1874 20.288ZM49.8354 10.976C50.39 10.976 50.9447 10.9547 51.4994 10.912C52.0754 10.8693 52.5874 10.7413 53.0354 10.528C53.4834 10.336 53.846 10.0373 54.1234 9.632C54.4007 9.22667 54.5394 8.66133 54.5394 7.936C54.5394 7.36 54.39 6.90133 54.0914 6.56C53.7927 6.19733 53.4087 5.93067 52.9394 5.76C52.47 5.61067 51.9474 5.536 51.3714 5.536C50.7954 5.51467 50.23 5.536 49.6754 5.6L49.8354 10.976Z" fill="#6FA6F4"/>
<path d="M79.7271 1.664C79.9405 1.36533 80.1218 1.184 80.2711 1.12C80.4205 1.03467 80.6765 1.07733 81.0391 1.248L84.3671 2.688C84.7511 2.85867 84.9751 3.09333 85.0391 3.392C85.1245 3.66933 85.0391 3.98933 84.7831 4.352L77.9991 13.696C77.7645 14.0373 77.5725 14.3573 77.4231 14.656C77.2951 14.9547 77.2311 15.36 77.2311 15.872V23.264C77.2311 23.904 77.1245 24.3413 76.9111 24.576C76.6978 24.832 76.3138 24.96 75.7591 24.96H73.0711C72.5165 24.96 72.1325 24.832 71.9191 24.576C71.7271 24.3413 71.6311 23.904 71.6311 23.264L71.5351 15.872C71.5351 15.36 71.4605 14.9547 71.3111 14.656C71.1831 14.3573 71.0018 14.0373 70.7671 13.696L63.9831 4.352C63.7271 3.98933 63.6311 3.66933 63.6951 3.392C63.7805 3.09333 64.0151 2.85867 64.3991 2.688L67.7271 1.248C68.0898 1.07733 68.3458 1.03467 68.4951 1.12C68.6445 1.184 68.8258 1.36533 69.0391 1.664L74.3511 9.216L79.7271 1.664Z" fill="#FACC57"/>
<path d="M88.6381 22.784C88.6381 22.0373 88.8835 21.44 89.3741 20.992C89.8861 20.5227 90.5155 20.288 91.2621 20.288C91.9661 20.288 92.5741 20.5227 93.0861 20.992C93.5981 21.44 93.8541 22.0373 93.8541 22.784C93.8541 23.5093 93.5981 24.096 93.0861 24.544C92.5741 25.0133 91.9661 25.248 91.2621 25.248C90.5155 25.248 89.8861 25.0133 89.3741 24.544C88.8835 24.096 88.6381 23.5093 88.6381 22.784ZM88.6381 2.88C88.6381 2.32533 88.7235 1.952 88.8941 1.76C89.0861 1.54667 89.4061 1.44 89.8541 1.44H92.7661C93.2355 1.44 93.5555 1.54667 93.7261 1.76C93.8968 1.952 93.9821 2.32533 93.9821 2.88V16.992C93.9821 17.5467 93.8968 17.9307 93.7261 18.144C93.5555 18.336 93.2355 18.432 92.7661 18.432H89.8541C89.4061 18.432 89.0861 18.336 88.8941 18.144C88.7235 17.9307 88.6381 17.5467 88.6381 16.992V2.88Z" fill="#EA83A8"/>
</svg>
