<svg width="15" height="15" viewBox="0 0 15 15" fill="none" xmlns="http://www.w3.org/2000/svg">
<path d="M0.000925182 0.728249C0.000925182 0.535105 0.0781389 0.349872 0.215579 0.213299C0.353018 0.0767261 0.539426 0 0.733795 0H10.994C11.1883 0 11.3747 0.0767261 11.5122 0.213299C11.6496 0.349872 11.7268 0.535105 11.7268 0.728249C11.7268 0.921392 11.6496 1.10663 11.5122 1.2432C11.3747 1.37977 11.1883 1.4565 10.994 1.4565H0.733795C0.539426 1.4565 0.353018 1.37977 0.215579 1.2432C0.0781389 1.10663 0.000925182 0.921392 0.000925182 0.728249ZM0.733795 4.36949C0.539426 4.36949 0.353018 4.44622 0.215579 4.58279C0.0781389 4.71937 0.000925182 4.9046 0.000925182 5.09774C0.000925182 5.29089 0.0781389 5.47612 0.215579 5.61269C0.353018 5.74926 0.539426 5.82599 0.733795 5.82599H8.06249C8.25686 5.82599 8.44327 5.74926 8.58071 5.61269C8.71815 5.47612 8.79536 5.29089 8.79536 5.09774C8.79536 4.9046 8.71815 4.71937 8.58071 4.58279C8.44327 4.44622 8.25686 4.36949 8.06249 4.36949H0.733795Z" fill="black"/>
<path d="M0.214653 8.69526C0.352093 8.55868 0.538501 8.48196 0.73287 8.48196H8.06157C8.25594 8.48196 8.44234 8.55868 8.57978 8.69526C8.71722 8.83183 8.79444 9.01706 8.79444 9.21021C8.79444 9.40335 8.71722 9.58858 8.57978 9.72516C8.44234 9.86173 8.25594 9.93846 8.06157 9.93846H0.73287C0.538501 9.93846 0.352093 9.86173 0.214653 9.72516C0.0772138 9.58858 0 9.40335 0 9.21021C0 9.01706 0.0772138 8.83183 0.214653 8.69526Z" fill="black"/>
<path d="M11.8542 2.86927C11.9916 3.00584 12.0688 3.19107 12.0688 3.38422V12.5121L13.7486 10.8415C13.8167 10.7738 13.8976 10.7202 13.9866 10.6837C14.0756 10.6471 14.1709 10.6283 14.2672 10.6284C14.3635 10.6285 14.4589 10.6474 14.5478 10.6841C14.6368 10.7207 14.7176 10.7745 14.7856 10.8422C14.8536 10.9099 14.9076 10.9903 14.9444 11.0787C14.9812 11.1671 15.0001 11.2619 15 11.3576C14.9999 11.4533 14.9809 11.548 14.944 11.6364C14.9071 11.7247 14.853 11.805 14.7849 11.8727L11.8534 14.7857C11.7181 14.9213 11.5344 14.9983 11.3422 15C11.15 15.0016 10.965 14.9277 10.8274 14.7944L10.8171 14.7842L7.88563 11.8727C7.74801 11.7359 7.6707 11.5504 7.6707 11.3571C7.6707 11.1637 7.74801 10.9782 7.88563 10.8415C8.02324 10.7047 8.20988 10.6279 8.4045 10.6279C8.59911 10.6279 8.78576 10.7047 8.92337 10.8415L10.6031 12.5121V3.38422C10.6031 3.19107 10.6803 3.00584 10.8178 2.86927C10.9552 2.73269 11.1416 2.65597 11.336 2.65597C11.5303 2.65597 11.7168 2.73269 11.8542 2.86927Z" fill="black"/>
</svg>
