<svg width="25" height="25" viewBox="0 0 25 25" fill="none" xmlns="http://www.w3.org/2000/svg">
<path d="M9.13672 11.6543H10.5766L9.85667 9.4375L9.13672 11.6543Z" fill="black"/>
<path d="M12.5 0C5.59615 0 0 4.78144 0 10.6804C0 14.4941 2.34014 17.8441 5.85938 19.7301C5.66827 20.4452 4.62861 24.3331 4.58774 24.6392C4.58774 24.6392 4.5625 24.8685 4.69952 24.9557C4.74536 24.9808 4.79545 24.9954 4.8467 24.9988C4.89795 25.0022 4.9493 24.9941 4.9976 24.9753C5.39183 24.9153 9.5649 21.7438 10.2861 21.198C11.0196 21.3084 11.7594 21.3628 12.5 21.3608C19.4038 21.3608 25 16.5794 25 10.6804C25 4.78144 19.4038 0 12.5 0ZM6.3137 9.02235C6.29808 10.5332 6.32572 12.1223 6.30288 13.6097C6.29567 14.0851 6.04327 14.2271 5.70192 14.3626C5.66336 14.3773 5.62182 14.3805 5.58173 14.3717C5.19111 14.2883 4.87981 14.1372 4.87019 13.611C4.84255 12.1249 4.87861 10.5332 4.85938 9.02235C4.52885 9.00802 4.05769 9.03668 3.7512 9.02235C3.32572 8.99239 3.03005 8.69933 3.04808 8.263C3.06611 7.82666 3.28125 7.51276 3.75841 7.50495C4.88582 7.48671 6.28245 7.48671 7.40986 7.50495C7.89062 7.51276 8.10457 7.82797 8.11899 8.263C8.13341 8.69803 7.84255 8.99239 7.41827 9.02235C7.11538 9.03668 6.64543 9.00802 6.3137 9.02235ZM12.3714 14.2909C12.2272 14.362 12.0707 14.3989 11.9123 14.399C11.6118 14.399 11.3822 14.2688 11.3113 14.0539L10.9507 13.0405H8.75601L8.39543 14.0539C8.32572 14.2662 8.09615 14.399 7.79447 14.399C7.63644 14.399 7.48025 14.3622 7.33654 14.2909C7.13702 14.1919 6.94591 13.9184 7.16466 13.1812L8.89423 8.26039C8.96676 8.04364 9.09667 7.85488 9.2677 7.71773C9.43873 7.58058 9.64328 7.50113 9.85577 7.48932C10.0681 7.50239 10.2723 7.58248 10.4431 7.71972C10.6139 7.85696 10.744 8.04535 10.8173 8.2617L12.5409 13.1799C12.7608 13.9184 12.5697 14.1971 12.3714 14.2909ZM16.0156 14.2909H13.7019C13.5227 14.2948 13.3494 14.2216 13.2199 14.0873C13.0904 13.9531 13.0152 13.7687 13.0108 13.5746V8.27081C13.0185 8.06481 13.0994 7.87001 13.2366 7.7272C13.3739 7.58438 13.5567 7.50463 13.747 7.50463C13.9372 7.50463 14.1201 7.58438 14.2573 7.7272C14.3946 7.87001 14.4755 8.06481 14.4832 8.27081V12.8621H16.0156C16.1058 12.8562 16.1961 12.8704 16.281 12.9037C16.366 12.937 16.4437 12.9888 16.5095 13.0559C16.5752 13.123 16.6276 13.204 16.6635 13.2939C16.6993 13.3837 16.7178 13.4806 16.7178 13.5785C16.7178 13.6763 16.6993 13.7732 16.6635 13.8631C16.6276 13.9529 16.5752 14.0339 16.5095 14.101C16.4437 14.1681 16.366 14.2199 16.281 14.2532C16.1961 14.2866 16.1058 14.3007 16.0156 14.2948V14.2909ZM21.6647 13.7022C21.6459 13.8564 21.5851 14.0009 21.4901 14.1175C21.3951 14.234 21.2702 14.3172 21.1313 14.3563C20.9924 14.3955 20.846 14.3889 20.7106 14.3373C20.5752 14.2857 20.4571 14.1916 20.3714 14.0669L18.6803 11.6404L18.4303 11.9113V13.6162C18.4303 13.8235 18.3543 14.0223 18.2191 14.1688C18.0838 14.3154 17.9004 14.3977 17.7091 14.3977C17.5179 14.3977 17.3344 14.3154 17.1992 14.1688C17.064 14.0223 16.988 13.8235 16.988 13.6162V8.27602C16.988 8.06876 17.064 7.86998 17.1992 7.72342C17.3344 7.57687 17.5179 7.49453 17.7091 7.49453C17.9004 7.49453 18.0838 7.57687 18.2191 7.72342C18.3543 7.86998 18.4303 8.06876 18.4303 8.27602V9.95103L20.4423 7.77066C20.495 7.71422 20.5575 7.66972 20.6262 7.63975C20.6949 7.60978 20.7685 7.59495 20.8425 7.59612C21.0226 7.60125 21.1946 7.67827 21.3255 7.81241C21.4564 7.94655 21.5369 8.12835 21.5517 8.32291C21.5582 8.40973 21.5475 8.49705 21.5203 8.57904C21.4932 8.66102 21.4502 8.73578 21.3942 8.79832L19.7476 10.5788L21.5228 13.1278C21.6378 13.2931 21.6875 13.5011 21.6611 13.7061L21.6647 13.7022Z" fill="black"/>
</svg>
