<svg width="133" height="35" viewBox="0 0 133 35" fill="none" xmlns="http://www.w3.org/2000/svg">
<path d="M0.655 3.75C0.655 2.88 0.79 2.295 1.06 1.995C1.33 1.665 1.975 1.47 2.995 1.41C4.795 1.29 6.595 1.275 8.395 1.365C10.195 1.455 11.92 1.695 13.57 2.085C15.22 2.475 16.75 3.045 18.16 3.795C19.57 4.545 20.8 5.52 21.85 6.72C22.9 7.92 23.725 9.375 24.325 11.085C24.925 12.795 25.225 14.805 25.225 17.115C25.225 22.785 23.38 27.075 19.69 29.985C16 32.865 10.42 34.305 2.95 34.305C1.66 34.305 1.015 33.585 1.015 32.145L0.655 3.75ZM8.44 26.88C11.5 26.46 13.795 25.455 15.325 23.865C16.855 22.245 17.62 19.98 17.62 17.07C17.62 15.72 17.41 14.49 16.99 13.38C16.57 12.27 15.955 11.325 15.145 10.545C14.335 9.795 13.33 9.225 12.13 8.835C10.96 8.415 9.61 8.235 8.08 8.295L8.44 26.88Z" fill="#B56FCF"/>
<path d="M50.5776 17.835C50.5776 16.215 50.3976 14.79 50.0376 13.56C49.6776 12.33 49.1976 11.295 48.5976 10.455C47.9676 9.645 47.2326 9.045 46.3926 8.655C45.5526 8.235 44.6526 8.025 43.6926 8.025C42.7326 8.025 41.8326 8.235 40.9926 8.655C40.1526 9.045 39.4326 9.645 38.8326 10.455C38.2026 11.295 37.7076 12.33 37.3476 13.56C36.9876 14.79 36.8076 16.215 36.8076 17.835C36.8076 19.455 36.9876 20.88 37.3476 22.11C37.7076 23.34 38.2026 24.36 38.8326 25.17C39.4326 25.98 40.1526 26.595 40.9926 27.015C41.8326 27.405 42.7326 27.6 43.6926 27.6C44.6526 27.6 45.5526 27.405 46.3926 27.015C47.2326 26.595 47.9676 25.98 48.5976 25.17C49.1976 24.36 49.6776 23.34 50.0376 22.11C50.3976 20.88 50.5776 19.455 50.5776 17.835ZM58.4526 17.835C58.4526 20.445 58.0476 22.8 57.2376 24.9C56.4576 27 55.3926 28.785 54.0426 30.255C52.6926 31.725 51.1176 32.85 49.3176 33.63C47.5476 34.41 45.6726 34.8 43.6926 34.8C41.7126 34.8 39.8226 34.41 38.0226 33.63C36.2526 32.85 34.6926 31.725 33.3426 30.255C31.9926 28.785 30.9126 27 30.1026 24.9C29.3226 22.8 28.9326 20.43 28.9326 17.79C28.9326 15.18 29.3226 12.825 30.1026 10.725C30.9126 8.625 31.9926 6.84 33.3426 5.37C34.6926 3.9 36.2526 2.775 38.0226 1.995C39.8226 1.215 41.7126 0.824998 43.6926 0.824998C45.6726 0.824998 47.5476 1.23 49.3176 2.04C51.1176 2.82 52.6926 3.945 54.0426 5.415C55.3926 6.885 56.4576 8.67 57.2376 10.77C58.0476 12.87 58.4526 15.225 58.4526 17.835Z" fill="#FA7373"/>
<path d="M62.7831 3.66C62.7531 2.97 62.8431 2.505 63.0531 2.265C63.2931 1.995 63.7431 1.785 64.4031 1.635C65.0631 1.515 65.6781 1.41 66.2481 1.32C66.8181 1.2 67.3731 1.11 67.9131 1.05C68.4231 0.989999 68.9331 0.944999 69.4431 0.914997C69.9531 0.884998 70.4931 0.854998 71.0631 0.824998C72.6831 0.794999 74.2731 0.899999 75.8331 1.14C77.4231 1.35 78.8481 1.785 80.1081 2.445C81.3681 3.105 82.4031 4.005 83.2131 5.145C84.0231 6.255 84.4881 7.68 84.6081 9.42C84.6981 10.59 84.5631 11.745 84.2031 12.885C83.8431 13.995 83.1381 14.94 82.0881 15.72C83.5281 16.41 84.6531 17.52 85.4631 19.05C86.2731 20.58 86.7081 22.215 86.7681 23.955C86.7981 25.515 86.5431 26.865 86.0031 28.005C85.4631 29.145 84.6981 30.09 83.7081 30.84C82.7181 31.62 81.5481 32.25 80.1981 32.73C78.8481 33.18 77.3931 33.525 75.8331 33.765C74.2731 34.005 72.6531 34.155 70.9731 34.215C69.2931 34.305 67.6281 34.335 65.9781 34.305C65.6481 34.305 65.3331 34.29 65.0331 34.26C64.7631 34.23 64.5381 34.14 64.3581 33.99C64.1481 33.84 63.9681 33.615 63.8181 33.315C63.6981 33.045 63.6381 32.64 63.6381 32.1L62.7831 3.66ZM70.8831 27.78C72.0831 27.78 73.1931 27.72 74.2131 27.6C75.2631 27.48 76.1781 27.27 76.9581 26.97C77.7081 26.67 78.2781 26.28 78.6681 25.8C79.0881 25.29 79.2831 24.675 79.2531 23.955C79.1931 23.025 78.8331 22.335 78.1731 21.885C77.5131 21.405 76.7331 21.075 75.8331 20.895C74.9331 20.715 74.0031 20.655 73.0431 20.715C72.1131 20.745 71.3181 20.79 70.6581 20.85L70.8831 27.78ZM70.3881 14.685C71.1681 14.685 71.9481 14.655 72.7281 14.595C73.5381 14.535 74.2581 14.355 74.8881 14.055C75.5181 13.785 76.0281 13.365 76.4181 12.795C76.8081 12.225 77.0031 11.43 77.0031 10.41C77.0031 9.6 76.7931 8.955 76.3731 8.475C75.9531 7.965 75.4131 7.59 74.7531 7.35C74.0931 7.14 73.3581 7.035 72.5481 7.035C71.7381 7.005 70.9431 7.035 70.1631 7.125L70.3881 14.685Z" fill="#6FA6F4"/>
<path d="M112.423 1.59C112.723 1.17 112.978 0.914999 113.188 0.824998C113.398 0.704998 113.758 0.764998 114.268 1.005L118.948 3.03C119.488 3.27 119.803 3.6 119.893 4.02C120.013 4.41 119.893 4.86 119.533 5.37L109.993 18.51C109.663 18.99 109.393 19.44 109.183 19.86C109.003 20.28 108.913 20.85 108.913 21.57V31.965C108.913 32.865 108.763 33.48 108.463 33.81C108.163 34.17 107.623 34.35 106.843 34.35H103.063C102.283 34.35 101.743 34.17 101.443 33.81C101.173 33.48 101.038 32.865 101.038 31.965L100.903 21.57C100.903 20.85 100.798 20.28 100.588 19.86C100.408 19.44 100.153 18.99 99.8234 18.51L90.2834 5.37C89.9234 4.86 89.7884 4.41 89.8784 4.02C89.9984 3.6 90.3284 3.27 90.8684 3.03L95.5484 1.005C96.0584 0.764998 96.4184 0.704998 96.6284 0.824998C96.8384 0.914999 97.0934 1.17 97.3934 1.59L104.863 12.21L112.423 1.59Z" fill="#FACC57" fill-opacity="0.772549"/>
<path d="M124.954 31.29C124.954 30.24 125.299 29.4 125.989 28.77C126.709 28.11 127.594 27.78 128.644 27.78C129.634 27.78 130.489 28.11 131.209 28.77C131.929 29.4 132.289 30.24 132.289 31.29C132.289 32.31 131.929 33.135 131.209 33.765C130.489 34.425 129.634 34.755 128.644 34.755C127.594 34.755 126.709 34.425 125.989 33.765C125.299 33.135 124.954 32.31 124.954 31.29ZM124.954 3.3C124.954 2.52 125.074 1.995 125.314 1.725C125.584 1.425 126.034 1.275 126.664 1.275H130.759C131.419 1.275 131.869 1.425 132.109 1.725C132.349 1.995 132.469 2.52 132.469 3.3V23.145C132.469 23.925 132.349 24.465 132.109 24.765C131.869 25.035 131.419 25.17 130.759 25.17H126.664C126.034 25.17 125.584 25.035 125.314 24.765C125.074 24.465 124.954 23.925 124.954 23.145V3.3Z" fill="#EA83A8"/>
</svg>
