<svg width="16" height="16" viewBox="0 0 16 16" fill="none" xmlns="http://www.w3.org/2000/svg">
<path d="M9.82727 0.718751C9.89298 0.718633 9.95806 0.731467 10.0188 0.756519C10.0795 0.781571 10.1348 0.818349 10.1813 0.864751L15.1313 5.81475C15.225 5.90851 15.2777 6.03567 15.2777 6.16825C15.2777 6.30083 15.225 6.42799 15.1313 6.52175C14.6513 7.00175 14.0593 7.10975 13.6283 7.10975C13.4513 7.10975 13.2933 7.09175 13.1683 7.07075L10.0343 10.2048C10.1168 10.5372 10.1703 10.8761 10.1943 11.2178C10.2403 11.9198 10.1623 12.9048 9.47427 13.5928C9.38051 13.6865 9.25335 13.7391 9.12077 13.7391C8.98819 13.7391 8.86104 13.6865 8.76727 13.5928L5.93827 10.7648L2.75627 13.9468C2.56127 14.1418 1.53727 14.8488 1.34227 14.6538C1.14727 14.4588 1.85427 13.4338 2.04927 13.2398L5.23127 10.0578L2.40327 7.22875C2.30954 7.13499 2.25688 7.00783 2.25688 6.87525C2.25688 6.74267 2.30954 6.61551 2.40327 6.52175C3.09127 5.83375 4.07627 5.75475 4.77827 5.80175C5.11993 5.82569 5.45887 5.87922 5.79127 5.96175L8.92527 2.82875C8.89911 2.67647 8.88573 2.52226 8.88527 2.36775C8.88527 1.93775 8.99327 1.34575 9.47427 0.864751C9.56798 0.771282 9.69492 0.718779 9.82727 0.718751ZM9.94927 2.82875V2.83075C9.97815 2.91872 9.98204 3.01298 9.96049 3.10303C9.93895 3.19308 9.89283 3.27537 9.82727 3.34075L6.29227 6.87475C6.22659 6.94015 6.14402 6.98601 6.05378 7.0072C5.96355 7.02839 5.8692 7.02408 5.78127 6.99475H5.77927L5.76527 6.99075C5.67014 6.96225 5.57408 6.9369 5.47727 6.91475C5.22571 6.85607 4.96992 6.81728 4.71227 6.79875C4.29027 6.77075 3.87627 6.80675 3.53727 6.94875L9.04727 12.4578C9.18827 12.1178 9.22427 11.7048 9.19627 11.2828C9.1708 10.9255 9.10642 10.5721 9.00427 10.2288L9.00027 10.2158C8.97074 10.1277 8.96633 10.0321 8.98752 9.9417C9.00872 9.85127 9.05469 9.76853 9.12027 9.70275L12.6563 6.16775C12.7244 6.09924 12.8108 6.05193 12.9053 6.03152C12.9997 6.01111 13.098 6.01849 13.1883 6.05275L13.2843 6.07475C13.3713 6.09175 13.4923 6.10875 13.6283 6.10875C13.7423 6.10875 13.8583 6.09775 13.9713 6.06875L9.92627 2.02475C9.89727 2.13775 9.88627 2.25475 9.88627 2.36775C9.88676 2.52313 9.90761 2.67778 9.94827 2.82775L9.94927 2.82875Z" fill="black" stroke="#717171" stroke-width="0.5" />
</svg>
