<svg width="25" height="25" viewBox="0 0 25 25" fill="none" xmlns="http://www.w3.org/2000/svg">
<path d="M11.9951 22.8044L12.2654 22.3478L10.9208 21.552L10.6505 22.0085L11.9951 22.8044ZM8.56918 22.3478L8.83943 22.8044L10.184 22.0085L9.91381 21.552L8.56918 22.3478ZM10.6505 22.0085C10.6033 22.0884 10.5207 22.1354 10.4173 22.1354C10.3139 22.1354 10.2313 22.0884 10.184 22.0085L8.83943 22.8044C9.54458 23.9957 11.29 23.9957 11.9951 22.8044L10.6505 22.0085ZM9.16732 7.03125H11.6673V5.46875H9.16732V7.03125ZM17.9694 13.3333V14.1667H19.5319V13.3333H17.9694ZM2.86523 14.1667V13.3333H1.30273V14.1667H2.86523ZM1.30273 14.1667C1.30273 15.1268 1.30231 15.8858 1.34419 16.4997C1.38656 17.1205 1.47479 17.6496 1.67937 18.1435L3.12293 17.5456C3.01035 17.2738 2.94001 16.9347 2.90307 16.3933C2.86566 15.845 2.86523 15.1481 2.86523 14.1667H1.30273ZM6.57699 19.6202C5.75171 19.5938 5.30321 19.522 4.95511 19.3778L4.35716 20.8214C4.9789 21.0789 5.66465 21.1543 6.52704 21.1819L6.57699 19.6202ZM1.67937 18.1435C2.18156 19.3559 3.14479 20.3192 4.35716 20.8214L4.95511 19.3778C4.12559 19.0342 3.46654 18.3751 3.12293 17.5456L1.67937 18.1435ZM17.9694 14.1667C17.9694 15.1481 17.969 15.845 17.9316 16.3933C17.8946 16.9347 17.8243 17.2738 17.7117 17.5456L19.1552 18.1435C19.3598 17.6496 19.448 17.1205 19.4904 16.4997C19.5323 15.8858 19.5319 15.1268 19.5319 14.1667H17.9694ZM14.3075 21.1819C15.1699 21.1543 15.8558 21.0789 16.4774 20.8214L15.8795 19.3778C15.5314 19.522 15.0829 19.5938 14.2576 19.6202L14.3075 21.1819ZM17.7117 17.5456C17.3682 18.3751 16.7091 19.0342 15.8795 19.3778L16.4774 20.8214C17.6898 20.3192 18.653 19.3559 19.1552 18.1435L17.7117 17.5456ZM11.6673 7.03125C13.0464 7.03125 14.0258 7.03207 14.7874 7.10449C15.5375 7.1758 15.9952 7.31099 16.3528 7.53013L17.1693 6.19788C16.5249 5.80301 15.7997 5.6312 14.9353 5.54901C14.0826 5.46793 13.0162 5.46875 11.6673 5.46875V7.03125ZM19.5319 13.3333C19.5319 11.9846 19.5327 10.9181 19.4517 10.0653C19.3695 9.20092 19.1976 8.47576 18.8027 7.8314L17.4705 8.6478C17.6896 9.0054 17.8248 9.46319 17.8962 10.2132C17.9686 10.9749 17.9694 11.9543 17.9694 13.3333H19.5319ZM16.3528 7.53013C16.8084 7.80927 17.1914 8.19227 17.4705 8.6478L18.8027 7.8314C18.3948 7.16563 17.835 6.60587 17.1693 6.19788L16.3528 7.53013ZM9.16732 5.46875C7.81852 5.46875 6.75206 5.46793 5.89929 5.54901C5.03489 5.6312 4.30973 5.80301 3.66537 6.19788L4.48178 7.53013C4.83937 7.31099 5.29716 7.1758 6.04718 7.10449C6.80883 7.03207 7.78827 7.03125 9.16732 7.03125V5.46875ZM2.86523 13.3333C2.86523 11.9543 2.86606 10.9749 2.93847 10.2132C3.00979 9.46319 3.14497 9.0054 3.36411 8.6478L2.03186 7.8314C1.637 8.47576 1.46518 9.20092 1.383 10.0653C1.30191 10.9181 1.30273 11.9846 1.30273 13.3333H2.86523ZM3.66537 6.19788C2.9996 6.60587 2.43984 7.16563 2.03186 7.8314L3.36411 8.6478C3.64326 8.19227 4.02626 7.80927 4.48178 7.53013L3.66537 6.19788ZM9.91381 21.552C9.70464 21.1985 9.52116 20.8871 9.34324 20.6421C9.15604 20.3844 8.94156 20.1515 8.64463 19.9758L7.84912 21.3207C7.89715 21.3491 7.96343 21.4011 8.07903 21.5603C8.20389 21.7323 8.34525 21.9695 8.56918 22.3478L9.91381 21.552ZM6.52704 21.1819C6.99105 21.1968 7.28765 21.207 7.51296 21.2345C7.72598 21.2604 7.80591 21.2951 7.84912 21.3207L8.64463 19.9758C8.34287 19.7974 8.02535 19.7228 7.70215 19.6834C7.39126 19.6455 7.01291 19.6342 6.57699 19.6202L6.52704 21.1819ZM12.2654 22.3478C12.4893 21.9695 12.6308 21.7323 12.7555 21.5603C12.8712 21.4011 12.9374 21.3491 12.9854 21.3207L12.19 19.9758C11.893 20.1515 11.6786 20.3844 11.4914 20.6421C11.3135 20.8871 11.1299 21.1985 10.9208 21.552L12.2654 22.3478ZM14.2576 19.6202C13.8217 19.6342 13.4434 19.6455 13.1324 19.6834C12.8093 19.7228 12.4917 19.7974 12.19 19.9758L12.9854 21.3207C13.0287 21.2951 13.1087 21.2604 13.3216 21.2345C13.5469 21.207 13.8436 21.1968 14.3075 21.1819L14.2576 19.6202Z" fill="#1C274C"/>
<path d="M13.933 2.86719H16.2767V1.30469H13.933V2.86719ZM22.1361 8.72659V9.50784H23.6986V8.72659H22.1361ZM22.1361 9.50784C22.1361 10.4285 22.1357 11.08 22.1008 11.592C22.0663 12.097 22.0009 12.409 21.8983 12.6569L23.3419 13.2548C23.5365 12.7848 23.6198 12.2829 23.6597 11.6983C23.6991 11.1208 23.6986 10.4072 23.6986 9.50784H22.1361ZM21.8983 12.6569C21.5811 13.4226 20.9728 14.0309 20.2071 14.3481L20.805 15.7917C21.9536 15.3159 22.8661 14.4033 23.3419 13.2548L21.8983 12.6569ZM16.2767 2.86719C17.5706 2.86719 18.4861 2.86801 19.1973 2.93564C19.8969 3.00215 20.3177 3.12774 20.6439 3.32769L21.4604 1.99544C20.8474 1.61976 20.1591 1.45754 19.3452 1.38015C18.5429 1.30386 17.5404 1.30469 16.2767 1.30469V2.86719ZM23.6986 8.72659C23.6986 7.46303 23.6995 6.4605 23.6232 5.65818C23.5458 4.84423 23.3836 4.15603 23.0079 3.54298L21.6757 4.35939C21.8756 4.68567 22.0012 5.10649 22.0677 5.80607C22.1354 6.51727 22.1361 7.43277 22.1361 8.72659H23.6986ZM20.6439 3.32769C21.0645 3.58536 21.418 3.9389 21.6757 4.35939L23.0079 3.54298C22.6214 2.91225 22.0911 2.38195 21.4604 1.99544L20.6439 3.32769ZM13.933 1.30469C12.6695 1.30469 11.667 1.30386 10.8647 1.38015C10.0507 1.45754 9.36251 1.61976 8.74946 1.99544L9.56586 3.32769C9.89215 3.12774 10.313 3.00215 11.0126 2.93564C11.7237 2.86801 12.6393 2.86719 13.933 2.86719V1.30469ZM8.74946 1.99544C8.11873 2.38195 7.58844 2.91225 7.20193 3.54298L8.53418 4.35939C8.79184 3.9389 9.14539 3.58536 9.56586 3.32769L8.74946 1.99544ZM8.10726 6.29319C8.1593 5.29279 8.28942 4.75879 8.53418 4.35939L7.20193 3.54298C6.74658 4.28603 6.60234 5.14549 6.54688 6.21202L8.10726 6.29319ZM18.7768 16.1326C19.5754 16.106 20.2189 16.0345 20.805 15.7917L20.2071 14.3481C19.8925 14.4784 19.484 14.5457 18.7249 14.571L18.7768 16.1326Z" fill="#1C274C"/>
<path d="M6.78125 13.5469H6.79062M10.4174 13.5469H10.4268M14.0539 13.5469H14.0633" stroke="#1C274C" stroke-width="2" stroke-linecap="round" stroke-linejoin="round"/>
</svg>
