<svg width="41" height="41" viewBox="0 0 41 41" fill="none" xmlns="http://www.w3.org/2000/svg">
<path d="M36.924 13.4823L38.3444 12.0743L39.74 13.4823L38.3444 14.8903L36.924 13.4823ZM5.18364 15.4823C4.07907 15.4823 3.18364 14.5869 3.18364 13.4823C3.18364 12.3777 4.07907 11.4823 5.18364 11.4823L5.18364 15.4823ZM31.6622 5.33316L38.3444 12.0743L35.5035 14.8903L28.8214 8.14914L31.6622 5.33316ZM38.3444 14.8903L31.6622 21.6314L28.8214 18.8155L35.5035 12.0743L38.3444 14.8903ZM36.924 15.4823L5.18364 15.4823L5.18364 11.4823L36.924 11.4823L36.924 15.4823Z" fill="#717171"/>
<path d="M3.51306 26.9646L2.09265 25.5566L0.696981 26.9646L2.09265 28.3726L3.51306 26.9646ZM18.5479 28.9646C19.6525 28.9646 20.5479 28.0692 20.5479 26.9646C20.5479 25.86 19.6525 24.9646 18.5479 24.9646L18.5479 28.9646ZM8.77482 18.8155L2.09265 25.5566L4.93347 28.3726L11.6156 21.6314L8.77482 18.8155ZM2.09265 28.3726L8.77482 35.1137L11.6156 32.2978L4.93348 25.5566L2.09265 28.3726ZM3.51306 28.9646L18.5479 28.9646L18.5479 24.9646L3.51306 24.9646L3.51306 28.9646Z" fill="#717171"/>
</svg>
