<svg width="41" height="41" viewBox="0 0 41 41" fill="none" xmlns="http://www.w3.org/2000/svg">
<path d="M17.1705 25.2793L17.1705 20.2235" stroke="#717171" stroke-width="4" stroke-linecap="round"/>
<path d="M23.8527 25.2793L23.8527 20.2235" stroke="#717171" stroke-width="4" stroke-linecap="round"/>
<path d="M5.47668 11.797H35.5465H34.5348C32.6492 11.797 31.7064 11.797 31.1206 12.3828C30.5348 12.9686 30.5348 13.9114 30.5348 15.797V29.7058C30.5348 31.5914 30.5348 32.5342 29.949 33.12C29.3633 33.7058 28.4204 33.7058 26.5348 33.7058H14.4883C12.6027 33.7058 11.6599 33.7058 11.0741 33.12C10.4883 32.5342 10.4883 31.5914 10.4883 29.7058V15.797C10.4883 13.9114 10.4883 12.9686 9.90253 12.3828C9.31674 11.797 8.37393 11.797 6.48831 11.797H5.47668Z" stroke="#717171" stroke-width="4" stroke-linecap="round"/>
<path d="M17.2843 5.68043C17.4747 5.50126 17.8942 5.34293 18.4777 5.23001C19.0612 5.11709 19.7761 5.05588 20.5116 5.05588C21.2471 5.05588 21.962 5.11709 22.5455 5.23001C23.129 5.34293 23.5485 5.50126 23.7388 5.68043" stroke="#717171" stroke-width="4" stroke-linecap="round"/>
</svg>
