<svg width="14" height="14" viewBox="0 0 14 14" fill="none" xmlns="http://www.w3.org/2000/svg">
<path d="M6.66637 10C6.82212 10 6.95278 9.94732 7.05833 9.84197C7.16389 9.7366 7.21667 9.60604 7.21667 9.4503C7.21667 9.29455 7.16399 9.16389 7.05863 9.05833C6.95327 8.95278 6.82271 8.9 6.66697 8.9C6.51121 8.9 6.38056 8.95268 6.275 9.05803C6.16945 9.1634 6.11667 9.29396 6.11667 9.4497C6.11667 9.60546 6.16934 9.73611 6.2747 9.84167C6.38007 9.94722 6.51062 10 6.66637 10ZM6.21667 7.45H7.21667V3.23333H6.21667V7.45ZM6.6711 13.3333C5.75183 13.3333 4.88794 13.1583 4.07943 12.8083C3.27092 12.4583 2.56389 11.9806 1.95833 11.375C1.35278 10.7694 0.875 10.062 0.525 9.25265C0.175 8.44332 0 7.57854 0 6.65833C0 5.73812 0.175 4.87335 0.525 4.06402C0.875 3.25467 1.35278 2.55 1.95833 1.95C2.56389 1.35 3.27134 0.875 4.08068 0.525C4.89002 0.175 5.75479 0 6.675 0C7.59521 0 8.45998 0.175 9.26932 0.525C10.0787 0.875 10.7833 1.35 11.3833 1.95C11.9833 2.55 12.4583 3.25556 12.8083 4.06667C13.1583 4.87778 13.3333 5.74297 13.3333 6.66223C13.3333 7.5815 13.1583 8.44539 12.8083 9.2539C12.4583 10.0624 11.9833 10.7684 11.3833 11.3719C10.7833 11.9754 10.0778 12.4532 9.26667 12.8053C8.45556 13.1573 7.59037 13.3333 6.6711 13.3333ZM6.675 12.3333C8.24722 12.3333 9.58333 11.7806 10.6833 10.675C11.7833 9.56944 12.3333 8.23056 12.3333 6.65833C12.3333 5.08611 11.7844 3.75 10.6865 2.65C9.58854 1.55 8.24861 1 6.66667 1C5.1 1 3.76389 1.54896 2.65833 2.64687C1.55278 3.74479 1 5.08472 1 6.66667C1 8.23333 1.55278 9.56944 2.65833 10.675C3.76389 11.7806 5.10278 12.3333 6.675 12.3333Z" fill="black"/>
</svg>
