<svg width="14" height="13" viewBox="0 0 14 13" fill="none" xmlns="http://www.w3.org/2000/svg">
<path d="M7.2596 0.0418949C6.90103 0.135352 6.55995 0.347754 6.33839 0.611134C6.15765 0.823536 6.11101 0.919825 5.93026 1.43809C5.62708 2.30752 5.29474 2.91357 4.77584 3.55361C4.57469 3.8 4.11117 4.27295 3.89835 4.4457L3.76134 4.55898L3.61266 4.4457C3.3328 4.23047 3.2366 4.21631 2.00929 4.21631C1.02103 4.21631 0.921915 4.22197 0.752832 4.27295C0.528361 4.34092 0.312634 4.49385 0.181449 4.68076C-0.0138703 4.9583 -0.00512461 4.74023 0.00362105 8.65127L0.0123667 12.1885L0.105654 12.3754C0.219347 12.5991 0.403006 12.7719 0.633308 12.8767L0.799476 12.9531H2.00929H3.21911L3.38528 12.8767C3.57768 12.7917 3.78175 12.6161 3.86046 12.4745L3.91585 12.3726L7.16923 12.3641C10.7433 12.3556 10.4663 12.3697 10.8599 12.1828C11.0698 12.0837 11.3701 11.8175 11.5158 11.5994C11.577 11.5088 11.6587 11.336 11.6995 11.2171C11.7403 11.0981 12.0843 9.88887 12.4633 8.53516C13.262 5.69463 13.2416 5.80508 13.0492 5.42559C12.921 5.17637 12.7752 5.0376 12.507 4.91299L12.3146 4.8252L10.6879 4.8167L9.06121 4.8082L9.0787 4.71758C9.08744 4.6666 9.1749 4.00957 9.2711 3.25342C9.46934 1.71563 9.47809 1.4749 9.35273 1.13223C9.21863 0.755567 8.8863 0.381739 8.51315 0.183496C8.18664 0.0135746 7.61817 -0.0515623 7.2596 0.0418949ZM8.02922 0.970801C8.32366 1.10391 8.51023 1.37578 8.51023 1.67598C8.51023 1.7666 8.41111 2.61338 8.28868 3.55645C8.16041 4.55898 8.07586 5.3123 8.08752 5.36611C8.09627 5.41709 8.13708 5.49922 8.18081 5.54736C8.3324 5.72578 8.24203 5.71729 10.2739 5.71729C12.1105 5.71729 12.1251 5.71729 12.1863 5.77676C12.2301 5.81924 12.2417 5.85605 12.2271 5.90986C12.0872 6.47061 10.7987 10.9849 10.7579 11.067C10.7258 11.1265 10.6442 11.2228 10.5771 11.2766C10.3381 11.4776 10.5276 11.4663 7.11967 11.4663H4.04995V8.48135V5.49922L4.35021 5.26133C5.53671 4.31826 6.38212 3.07217 6.88062 1.53721C6.91561 1.42393 6.98849 1.27666 7.04096 1.20586C7.24794 0.928321 7.6998 0.820704 8.02922 0.970801ZM3.04128 5.16787C3.08209 5.20752 3.08792 5.55869 3.08792 8.60313C3.08792 11.2029 3.07918 12.0016 3.05294 12.0271C3.00338 12.0752 1.0152 12.0752 0.965644 12.0271C0.939407 12.0016 0.930661 11.2029 0.930661 8.60313C0.930661 5.55869 0.936491 5.20752 0.977304 5.16787C1.0152 5.12822 1.15222 5.12256 2.00929 5.12256C2.86637 5.12256 3.00338 5.12822 3.04128 5.16787Z" fill="black"/>
</svg>
