<svg width="25" height="25" viewBox="0 0 25 25" fill="none" xmlns="http://www.w3.org/2000/svg">
<path d="M24.7784 10.2474C24.9271 11.0863 25.0012 11.9364 25 12.7879C25 16.5909 23.6132 19.8064 21.1999 21.9829H21.2031C19.0927 23.8938 16.1917 25 12.7518 25C9.36984 25 6.12636 23.6831 3.73493 21.339C1.34349 18.9948 0 15.8155 0 12.5004C0 9.18532 1.34349 6.006 3.73493 3.66187C6.12636 1.31774 9.36984 0.000824796 12.7518 0.000824796C15.9174 -0.0355152 18.9745 1.13021 21.2828 3.25384L17.6422 6.82247C16.3261 5.59279 14.5698 4.9194 12.7518 4.94754C9.42521 4.94754 6.59908 7.14746 5.59168 10.1099C5.05755 11.6622 5.05755 13.3433 5.59168 14.8956H5.59646C6.60864 17.8534 9.42999 20.0533 12.7566 20.0533C14.4749 20.0533 15.951 19.6221 17.0954 18.8596H17.0907C17.7552 18.428 18.3237 17.869 18.7617 17.2162C19.1998 16.5634 19.4983 15.8303 19.6394 15.0613H12.7518V10.2489L24.7784 10.2474Z" fill="black"/>
</svg>
